<?xml version="1.0" encoding="utf-8"?>
<!-- Generator: Adobe Illustrator 24.2.1, SVG Export Plug-In . SVG Version: 6.00 Build 0)  -->
<svg version="1.1" id="Layer_1" xmlns="http://www.w3.org/2000/svg" xmlns:xlink="http://www.w3.org/1999/xlink" x="0px" y="0px"
	 viewBox="0 0 34 34" style="enable-background:new 0 0 34 34;" xml:space="preserve">
<style type="text/css">
	.st0{fill:#FFFFFF;}
</style>
<g id="grafica_1_">
	<g>
		<g>
			<g>
				<path class="st0" d="M27.6,9h-4.2l-2.5-2.5l0,0l0,0l0,0c-0.4-0.4-0.9-0.6-1.4-0.6h-5.2c-0.6,0-1.1,0.3-1.5,0.7l0,0L10.3,9H6
					c-1.2,0-2.1,0.9-2.1,2.1v12.5c0,1.2,0.9,2.1,2.1,2.1h21.6c1.1,0,2.1-0.9,2.1-2.1V11.1C29.7,9.9,28.8,9,27.6,9z M16.8,22.6
					c-3.2,0-5.7-2.6-5.7-5.7c0-3.2,2.6-5.7,5.7-5.7c3.2,0,5.7,2.6,5.7,5.7S20,22.6,16.8,22.6z M27.2,12.3c-0.5,0-0.9-0.4-0.9-0.9
					s0.4-0.9,0.9-0.9s0.9,0.4,0.9,0.9S27.7,12.3,27.2,12.3z"/>
				<path class="st0" d="M16.8,12.5c-2.4,0-4.3,1.9-4.3,4.3s1.9,4.3,4.3,4.3s4.3-1.9,4.3-4.3S19.2,12.5,16.8,12.5z"/>
			</g>
			<g>
				<g>
					<path class="st0" d="M1.3,5.9c0.4,0,0.6-0.3,0.6-0.6V2h3.2c0.4,0,0.6-0.3,0.6-0.6c0-0.4-0.3-0.6-0.6-0.6H1.3
						C0.9,0.7,0.7,1,0.7,1.3v4C0.7,5.6,0.9,5.9,1.3,5.9z"/>
					<path class="st0" d="M32.7,0.7h-3.8c-0.4,0-0.6,0.3-0.6,0.6c0,0.4,0.3,0.6,0.6,0.6h3.2v3.3c0,0.4,0.3,0.6,0.6,0.6
						c0.4,0,0.6-0.3,0.6-0.6v-4C33.3,1,33.1,0.7,32.7,0.7z"/>
					<path class="st0" d="M5.1,32H1.9v-3.3c0-0.4-0.3-0.6-0.6-0.6c-0.4,0-0.6,0.3-0.6,0.6v4c0,0.4,0.3,0.6,0.6,0.6h3.8
						c0.4,0,0.6-0.3,0.6-0.6C5.8,32.3,5.5,32,5.1,32z"/>
					<path class="st0" d="M32.7,28.1c-0.4,0-0.6,0.3-0.6,0.6V32h-3.2c-0.4,0-0.6,0.3-0.6,0.6c0,0.4,0.3,0.6,0.6,0.6h3.8
						c0.4,0,0.6-0.3,0.6-0.6v-4C33.3,28.4,33.1,28.1,32.7,28.1z"/>
				</g>
			</g>
		</g>
	</g>
</g>
</svg>
