<?xml version="1.0" encoding="utf-8"?>
<!-- Generator: Adobe Illustrator 24.3.0, SVG Export Plug-In . SVG Version: 6.00 Build 0)  -->
<svg version="1.1" id="Layer_1" xmlns="http://www.w3.org/2000/svg" xmlns:xlink="http://www.w3.org/1999/xlink" x="0px" y="0px"
	 viewBox="0 0 150 150" style="enable-background:new 0 0 150 150;" xml:space="preserve">
<style type="text/css">
	.st0{fill:#F2F2F2;}
	.st1{fill:none;}
	.st2{fill:#FFFFFF;}
	.st3{fill:none;stroke:#263238;stroke-width:1.9808;stroke-miterlimit:10;}
	.st4{fill:#263238;}
	.st5{fill:#F17B00;}
	.st6{fill:#EBEBEB;}
	.st7{fill:#FCBF99;}
	.st8{fill:#EB996E;}
	.st9{opacity:0.2;}
	.st10{fill:#D6331E;}
	.st11{fill:#AE2313;}
	.st12{fill:#F7F4F5;}
	.st13{fill:none;stroke:#263238;stroke-miterlimit:10;}
	.st14{clip-path:url(#SVGID_2_);}
	.st15{clip-path:url(#SVGID_4_);fill:url(#SVGID_5_);}
	.st16{clip-path:url(#SVGID_4_);}
	.st17{fill:#FEFEFC;}
	.st18{fill:#491A00;}
	.st19{fill:#0A54E7;}
	.st20{fill:#FDC658;}
	.st21{fill:#EFECE6;}
	.st22{clip-path:url(#SVGID_4_);fill:none;stroke:#FFFFFF;stroke-width:10.8567;stroke-miterlimit:10;}
	.st23{clip-path:url(#SVGID_2_);fill:#FFFFFF;}
	.st24{clip-path:url(#SVGID_2_);fill:#ED1C24;}
	.st25{clip-path:url(#SVGID_7_);fill:#FFFFFF;}
	.st26{clip-path:url(#SVGID_7_);fill:none;stroke:#ED1C24;stroke-width:15.4691;stroke-miterlimit:10;}
	.st27{clip-path:url(#SVGID_7_);}
	.st28{fill:none;stroke:#ED1C24;stroke-width:15.4691;stroke-miterlimit:10;}
	.st29{fill:#76CECA;}
	.st30{fill:#00807E;}
	.st31{fill:#F14E4E;}
	.st32{fill:#00B0AA;}
	.st33{fill:#004E4B;}
	.st34{fill:#007871;}
	.st35{fill:url(#SVGID_8_);}
	.st36{opacity:0.43;}
	.st37{fill:url(#SVGID_9_);}
	.st38{fill:url(#SVGID_10_);}
	.st39{fill:url(#SVGID_11_);}
	.st40{fill:url(#SVGID_12_);}
	.st41{fill:url(#SVGID_13_);}
	.st42{fill:url(#SVGID_14_);}
	.st43{opacity:0.49;}
	.st44{fill:url(#SVGID_15_);}
	.st45{fill:url(#SVGID_16_);}
	.st46{fill:url(#SVGID_17_);}
	.st47{fill:url(#SVGID_18_);}
	.st48{fill:url(#SVGID_19_);}
	.st49{fill:url(#SVGID_20_);}
	.st50{fill:url(#SVGID_21_);}
	.st51{fill:url(#SVGID_22_);}
	.st52{fill:url(#SVGID_23_);}
	.st53{fill:url(#SVGID_24_);}
	.st54{fill:url(#SVGID_25_);}
	.st55{fill:url(#SVGID_26_);}
	.st56{fill:url(#SVGID_27_);}
	.st57{fill:url(#SVGID_28_);}
	.st58{fill:url(#SVGID_29_);}
	.st59{fill:url(#SVGID_30_);}
	.st60{fill:url(#SVGID_31_);}
	.st61{fill:url(#SVGID_32_);}
	.st62{fill:url(#SVGID_33_);}
	.st63{clip-path:url(#SVGID_35_);fill:url(#SVGID_36_);}
	.st64{clip-path:url(#SVGID_38_);}
	.st65{clip-path:url(#SVGID_40_);}
	.st66{clip-path:url(#SVGID_42_);}
	.st67{fill:none;stroke:#FFFFFF;stroke-width:11.7528;stroke-miterlimit:10;}
	.st68{fill:#F55400;}
	.st69{fill:#666666;}
	.st70{fill:none;stroke:url(#SVGID_43_);stroke-width:7.5331;stroke-miterlimit:10;}
	.st71{fill:#B3B3B3;}
	.st72{clip-path:url(#SVGID_45_);fill:url(#SVGID_46_);}
	.st73{clip-path:url(#SVGID_48_);}
	.st74{clip-path:url(#SVGID_50_);}
	.st75{clip-path:url(#SVGID_52_);}
	.st76{fill:none;stroke:#FFFFFF;stroke-width:11.554;stroke-miterlimit:10;}
</style>
<g>
	<defs>
		<rect id="SVGID_1_" y="224" width="150" height="150"/>
	</defs>
	<clipPath id="SVGID_2_">
		<use xlink:href="#SVGID_1_"  style="overflow:visible;"/>
	</clipPath>
	<g class="st14">
		<defs>
			<path id="SVGID_6_" d="M127.8,234c6.7,0,12.2,5.5,12.2,12.2v105.6c0,6.7-5.5,12.2-12.2,12.2H22.2c-6.7,0-12.2-5.5-12.2-12.2
				V246.2c0-6.7,5.5-12.2,12.2-12.2H127.8 M127.8,224H22.2C9.9,224,0,233.9,0,246.2v105.6C0,364.1,9.9,374,22.2,374h105.6
				c12.3,0,22.2-9.9,22.2-22.2V246.2C150,233.9,140.1,224,127.8,224L127.8,224z"/>
		</defs>
		<clipPath id="SVGID_4_">
			<use xlink:href="#SVGID_6_"  style="overflow:visible;"/>
		</clipPath>
		
			<line style="clip-path:url(#SVGID_4_);fill:none;stroke:#ED1C24;stroke-width:15.4691;stroke-miterlimit:10;" x1="92.5" y1="152.5" x2="-71.5" y2="316.5"/>
	</g>
</g>
<g>
	<g>
		<g>
			<defs>
				<rect id="SVGID_44_" x="-2" y="-2" width="154" height="154"/>
			</defs>
			<clipPath id="SVGID_5_">
				<use xlink:href="#SVGID_44_"  style="overflow:visible;"/>
			</clipPath>
			
				<linearGradient id="SVGID_7_" gradientUnits="userSpaceOnUse" x1="-22.6524" y1="-6725.9707" x2="194.5261" y2="-6932.8677" gradientTransform="matrix(1 0 0 -1 0 -6744)">
				<stop  offset="0.1445" style="stop-color:#F17B00"/>
				<stop  offset="0.2367" style="stop-color:#F27600"/>
				<stop  offset="0.4719" style="stop-color:#F46D00"/>
				<stop  offset="0.5622" style="stop-color:#F46600"/>
				<stop  offset="0.6896" style="stop-color:#F55400"/>
				<stop  offset="0.8384" style="stop-color:#F53600"/>
				<stop  offset="0.9288" style="stop-color:#F62000"/>
			</linearGradient>
			<rect x="-2" y="-2" style="clip-path:url(#SVGID_5_);fill:url(#SVGID_7_);" width="154" height="154"/>
		</g>
		<g>
			<defs>
				<rect id="SVGID_47_" x="-2" y="-2" width="154" height="154"/>
			</defs>
			<clipPath id="SVGID_8_">
				<use xlink:href="#SVGID_47_"  style="overflow:visible;"/>
			</clipPath>
			<g style="clip-path:url(#SVGID_8_);">
				<g>
					<path class="st17" d="M101.3,126.9c13.8,10.3,27.5,20.4,41.3,30.7c1.6,1.2,3.3,2.5,5,3.5c2.5,1.3,4.9,2.1,7.8,2.5
						c1.7,0.2,4-1.2,4.8-2.8c1.6-3.2,0.9-6.3-0.8-9.2c-1.1-1.8-2.5-3.6-3.9-5.2c-2.7-3.1-6-5.5-9.1-8.1c-1.4-1.1-3-2.3-4.5-3.4
						c-0.4-0.3-0.7-0.5-1-0.8c-1.1-0.8,0.5,0.4-0.2-0.2c-0.7-0.6-1.5-1.2-2.3-1.8c-3.4-2.9-6.1-6.5-9.7-9.1c-1.6-1.2-3.6-2.1-5.4-3
						c-1-0.5-2-0.9-2.9-1.5c-0.2-0.1-0.3-0.2-0.5-0.3c-0.8-0.5,0.5,0.5,0.1,0.1c-0.4-0.4-0.8-0.7-1.2-1.2c0,2.6,0,5.2,0,7.8
						c0.5-0.4,0.9-0.9,1.3-1.4c0.4-0.4,1.5-1.1,0.1-0.2c-0.9,0.5-2.3,0.7-3.2,0.4c-0.1,0-1.2-0.7-0.5-0.2c-1.1-0.8,0,0,0.3,0.3
						c1.2,1.1,2.4,2.3,3.4,3.5c2.5,2.7,4.8,5.3,7.2,8.1c2.9,3.5,6.5,6.3,10.1,8.9c1.6,1.2,3.3,2.4,4.9,3.6c0.4,0.3,0.8,0.6,1.2,0.9
						c0.2,0.1,0.4,0.3,0.5,0.4c0.6,0.4-0.8-0.7-0.3-0.2c0.8,0.7,1.6,1.3,2.5,2.1c0.8,0.7,1.6,1.4,2.4,2.3c0.4,0.4,0.7,0.8,1.1,1.2
						c0.1,0.2,0.3,0.3,0.4,0.5c0.7,0.8-0.7-1-0.1-0.1c0.6,0.8,1.2,1.7,1.6,2.7c0.3,0.5,0.5,1,0.7,1.5c0.3,0.7-0.5-1.3-0.1-0.2
						c0.1,0.3,0.2,0.6,0.3,1c0.9,2.8,3.9,4.8,6.8,3.9c2.8-0.9,4.8-3.9,3.9-6.8c-1.6-4.8-4.4-9.1-8.2-12.6c-3.4-3.2-7.3-5.9-11.1-8.6
						c-0.5-0.3-0.9-0.7-1.4-1c-0.2-0.1-0.4-0.3-0.5-0.4c-0.1-0.1-1-0.8-0.3-0.2c0.7,0.6-0.2-0.1-0.3-0.2c-0.2-0.1-0.4-0.3-0.5-0.4
						c-0.5-0.4-1-0.8-1.4-1.2c-1.7-1.5-3.3-3.1-4.7-4.8c-2.5-3-5-5.9-7.7-8.6c-1.6-1.7-3.4-3.7-5.4-4.8c-2.3-1.2-4.9-1.3-7.2,0
						c-1.4,0.8-2.6,2.2-3.7,3.4c-2.2,2.2-2.1,5.6,0,7.8c2.7,3,6.3,4.3,9.8,6.2c0.5,0.3,2,0.8,2.2,1.3c0,0-0.8-0.7-0.3-0.2
						c0.2,0.1,0.3,0.3,0.5,0.4c0.4,0.4,0.9,0.8,1.3,1.2c1.3,1.3,2.6,2.8,3.9,4.1c2.8,2.7,6,4.9,9,7.3c0.7,0.5,1.3,1,2.1,1.5
						c0.3,0.2,0.6,0.5,0.9,0.7c0.1,0.1,0.3,0.2,0.4,0.3c1,0.8-0.6-0.5-0.1,0c1.3,1,2.7,2.2,3.9,3.3c1.4,1.2,2.7,2.7,3.9,4.1
						c0.6,0.7-0.1-0.1-0.2-0.2c0.1,0.2,0.3,0.4,0.4,0.6c0.3,0.4,0.6,0.8,0.8,1.2c0.2,0.4,0.4,0.7,0.7,1.1c0.1,0.2,0.3,0.9,0.1,0.2
						c-0.2-1.1-0.4-1.4,0.3-2.8c1.6-0.9,3.2-1.8,4.8-2.8c1.5,0.2-0.3-0.1-0.6-0.2c-0.3-0.1-0.5-0.2-0.8-0.3c0.7,0.3,0.7,0.3,0.2,0.1
						c-1-0.5-2.1-1.1-3-1.7c-2-1.3-3.8-2.8-5.7-4.2c-4.3-3.2-8.6-6.4-12.9-9.7c-8.5-6.4-17-12.7-25.7-19.1c-2.4-1.7-6.3-0.4-7.6,2
						C97.8,122.2,98.8,125,101.3,126.9L101.3,126.9z"/>
				</g>
			</g>
		</g>
		<g>
			<defs>
				<rect id="SVGID_49_" x="-2" y="-2" width="154" height="154"/>
			</defs>
			<clipPath id="SVGID_9_">
				<use xlink:href="#SVGID_49_"  style="overflow:visible;"/>
			</clipPath>
			<g style="clip-path:url(#SVGID_9_);">
				<g>
					<polygon points="40.5,120.2 -12.8,170.1 -17.9,164.8 31.9,111.6 					"/>
				</g>
				<g>
					<path d="M74.5,92.8c-2.8,3.1-5.7,6.1-8.7,8.9c-1.4,1.4-3,2.9-4.5,4.3s-3.1,2.8-4.6,4.2c-3.1,2.8-6.3,5.4-9.4,8.1
						c-1.6,1.3-3.3,2.6-5.1,3.7c-1.8,1.1-1.3-0.4-3.6,0.3l-8.6-8.6c0.7-2.3-0.8-1.7,0.3-3.6c1.1-1.8,2.4-3.5,3.7-5.1
						c2.7-3.2,5.4-6.4,8.1-9.4c1.3-1.5,2.8-3.1,4.2-4.6s2.8-3.1,4.3-4.5c2.9-3,5.9-6,8.9-8.7L74.5,92.8z"/>
				</g>
				<g>
					<path class="st17" d="M99,54.2c0.1-0.2,0.2-0.4,0.2-0.6c0.2-1,1.1-1.4,0.1-1.2l-26.5,5.7c-2.8,0.5-5.6,0.4-7.9,2
						c-5.1,3.6-8.3,9.5-8.3,16.1l0,0c0,5.7,2.6,10.9,6.6,14.5c3.5,3.1,8,4.9,13,4.9l0,0c3.6,0,7-0.8,9.9-2.7c3.4-2.3,5.5-5,7-8.1
						C98.1,74.1,92.5,61,99,54.2z"/>
					<path class="st19" d="M92.6,85.7c-1.2,0.2-2.5-0.2-3.4-1.1l0,0c-1.3-1.3-1.5-3.4-0.5-4.8l0.6-0.6c1.5-1.5,1.5-4,0-5.5l0,0
						c-1.5-1.5-4-1.5-5.5,0l-7.9,8c-1.5,0.9-3.5,0.8-4.8-0.5c-1.3-1.3-1.5-3.4-0.5-4.8l7.9-8c1.5-1.5,1.5-4,0-5.5s-4-1.5-5.5,0
						l-2.5,2.5c-1.5,0.9-3.5,0.8-4.8-0.5c-1.1-1.1-1.4-2.9-0.8-4.3c2.4-1.7,5-3,8-3.5l26.8-5.3c1-0.2,1.8,0.7,1.7,1.6
						c0,0.2-0.1,0.4-0.2,0.6C94,60.7,98.3,75,92.6,85.7z"/>
					<path class="st20" d="M73.8,94.6L73.8,94.6c-0.2,0.2-0.4,0.4-0.7,0.6l0,0l-16.2,16.3l0,0l-0.2,0.2L40.4,95.6l5.5-5.5l10.9-11
						l0,0c0.2-0.2,0.4-0.4,0.6-0.7l0,0c1.1-1.1,5.7,1.5,10.2,6.1C72.1,88.9,74.9,93.5,73.8,94.6z"/>
					<path class="st21" d="M64.8,96.4L64.8,96.4c-1,1-2.6,1.1-3.7,0.2c-0.2-0.2-0.3-0.3-0.5-0.5l-3.4-3.3l-2.2,2.2l3.4,3.3
						c0.1,0.1,0.2,0.2,0.3,0.3c1.1,1,1.2,2.8,0.1,3.8l0,0c-1,1-2.6,1-3.6,0.1c-0.2-0.2-0.3-0.3-0.5-0.5l-3.4-3.3l-3.3,3.4l-6.6-6.5
						l5.1-5.1l0.4-0.4l3.8-3.8l6.1-6.1l0,0c0.2-0.2,0.4-0.4,0.5-0.6l0,0c1-1,5.3,1.4,9.5,5.6c1.1,1.1,2.3,2.4,3.1,3.4
						c-2.9-2.3-5.3-3.4-6.1-2.6l0,0c-0.2,0.2-0.4,0.4-0.5,0.6l0,0l-2.3,2.3l3.4,3.3c0.1,0.1,0.2,0.2,0.3,0.3
						C65.9,93.5,66,95.2,64.8,96.4z"/>
				</g>
			</g>
		</g>
		<g>
			<defs>
				<rect id="SVGID_51_" x="-2" y="-2" width="154" height="154"/>
			</defs>
			<clipPath id="SVGID_10_">
				<use xlink:href="#SVGID_51_"  style="overflow:visible;"/>
			</clipPath>
			<g style="clip-path:url(#SVGID_10_);">
				<g>
					<g id="b75_food_2_">
						<path class="st17" d="M32.9,117.6c24.5,24.2,64.1,23.9,88.3-0.7c24.2-24.5,15.7-55.9-8.8-80s-56-32.1-80.1-7.6
							C8.1,54,8.4,93.5,32.9,117.6z M95.6,38.2c22.6,12.6,30.7,41.2,18.2,63.8c-12.6,22.6-36.9,23.1-59.5,10.5s-35-33.6-22.4-56.2
							C44.4,33.7,72.9,25.6,95.6,38.2z"/>
					</g>
				</g>
				<circle class="st76" cx="75" cy="75" r="57.3"/>
			</g>
		</g>
	</g>
</g>
</svg>
