<?xml version="1.0" encoding="utf-8"?>
<!-- Generator: Adobe Illustrator 24.2.1, SVG Export Plug-In . SVG Version: 6.00 Build 0)  -->
<svg version="1.1" id="Layer_1" xmlns="http://www.w3.org/2000/svg" xmlns:xlink="http://www.w3.org/1999/xlink" x="0px" y="0px"
	 viewBox="0 0 34 34" style="enable-background:new 0 0 34 34;" xml:space="preserve">
<style type="text/css">
	.st0{fill:#FFFFFF;}
</style>
<g>
	<g>
		<g>
			<g>
				<path class="st0" d="M1.3,28.1c0.3,0,0.7,0.3,0.7,0.7v3.3h3.2c0.3,0,0.7,0.3,0.7,0.7c0,0.3-0.3,0.7-0.7,0.7H1.3
					c-0.3,0-0.7-0.3-0.7-0.7v-4C0.6,28.4,0.9,28.1,1.3,28.1z"/>
				<path class="st0" d="M32.7,33.4h-3.8c-0.3,0-0.7-0.3-0.7-0.7c0-0.3,0.3-0.7,0.7-0.7h3.2v-3.3c0-0.3,0.3-0.7,0.7-0.7
					c0.3,0,0.7,0.3,0.7,0.7v4C33.4,33.1,33.1,33.4,32.7,33.4z"/>
				<path class="st0" d="M5.2,1.9H1.9v3.3c0,0.3-0.3,0.7-0.7,0.7c-0.3,0-0.7-0.3-0.7-0.7V1.3c0-0.3,0.3-0.7,0.7-0.7h3.9
					c0.3,0,0.7,0.3,0.7,0.7C5.8,1.6,5.5,1.9,5.2,1.9z"/>
				<path class="st0" d="M32.7,5.9c-0.3,0-0.7-0.3-0.7-0.7V1.9h-3.2c-0.3,0-0.7-0.3-0.7-0.7c0-0.3,0.3-0.7,0.7-0.7h3.8
					c0.3,0,0.7,0.3,0.7,0.7v4C33.4,5.6,33.1,5.9,32.7,5.9z"/>
			</g>
		</g>
	</g>
	<g>
		<path class="st0" d="M23.2,22.5c-1.4,2.1-3.1,4.2-4.6,5.8c-0.5,0.6-1,1-1.5,1.4c4.5-0.1,8.8-2.6,6.4-6.7
			C23.4,22.8,23.3,22.6,23.2,22.5z"/>
		<path class="st0" d="M13.1,24.6c0-1,0.9-1.9,1.9-1.9c0.1,0,0.3,0,0.4,0c0.7-1.4,1.6-2.8,2.5-4.1c0.7-1,1.4-1.9,1.9-2.7
			c-0.1-1,0-2.3,0.3-3.9C21.8,4.2,8.3-1.4,4.3,11.4c-2.5,8,0.8,13.9,7.9,17.3c0.2,0.1,0.5,0.2,0.8,0.3c0-0.8,0.3-1.8,0.9-2.9
			C13.4,25.7,13.1,25.2,13.1,24.6z M6.4,15.1c0-1,0.9-1.9,1.9-1.9s1.9,0.9,1.9,1.9S9.3,17,8.3,17S6.4,16.1,6.4,15.1z M10.5,22.7
			c-1,0-1.9-0.9-1.9-1.9c0-1,0.9-1.9,1.9-1.9s1.9,0.9,1.9,1.9C12.4,21.9,11.5,22.7,10.5,22.7z M8.7,9.2c0-1.1,0.9-1.9,1.9-1.9
			s1.9,0.9,1.9,1.9s-0.9,1.9-1.9,1.9S8.7,10.3,8.7,9.2z"/>
		<path class="st0" d="M23.4,16L23.4,16c-0.5-0.3-0.9-0.7-1.1-1.1c-0.9,0.7-2.1,1.9-3.7,4.3c-3.2,4.8-5.6,10.3-4.5,11
			c0.1,0,0.2,0.1,0.3,0.1c1.4,0,5.3-4,8.2-8.4c1.6-2.4,2.4-4.1,2.6-5.2c-0.3,0-0.7-0.1-1-0.3C24,16.2,23.7,16.1,23.4,16z"/>
		<path class="st0" d="M30.5,8.2c0-0.3-0.3-0.5-0.6-0.5c-2.3,0.1-4.2,0.5-5.5,1.3c-1.5,0.9-2,2-2.1,2.8c-0.1,0.6,0,1.2,0.2,1.8
			c0.4,0.9,1.1,1.7,2.1,2c0.5,0.2,1,0.3,1.5,0.3l0,0c0,0,0.1,0,0.2,0c0.5,0,1-0.2,1.5-0.5c1.3-0.9,1.2-2.3,1.1-3.5
			c-0.1-1.6-0.1-2.5,1.3-3.1C30.4,8.8,30.6,8.5,30.5,8.2z"/>
	</g>
</g>
</svg>
