<?xml version="1.0" encoding="UTF-8"?>
<!-- Generator: Adobe Illustrator 24.0.3, SVG Export Plug-In . SVG Version: 6.00 Build 0)  -->
<svg version="1.1" id="Layer_1" xmlns="http://www.w3.org/2000/svg" xmlns:xlink="http://www.w3.org/1999/xlink" x="0px" y="0px" viewBox="0 0 70 70" style="enable-background:new 0 0 70 70;" xml:space="preserve">
<style type="text/css">
	.st0{fill:#FFFFFF;stroke:#E6E6E6;stroke-width:2;stroke-miterlimit:10;}
	.st1{fill:none;stroke:#4D4D4D;stroke-width:4;stroke-miterlimit:10;}
	.st2{fill:none;stroke:#FF0000;stroke-width:10;stroke-miterlimit:10;}
	.st3{fill-rule:evenodd;clip-rule:evenodd;fill:#231F20;}
	.st4{fill:none;stroke:#E6E6E6;stroke-width:3;stroke-miterlimit:10;}
	.st5{fill:#FAA53A;}
	.st6{fill:none;stroke:#999999;stroke-miterlimit:10;}
	.st7{fill:#999999;}
	.st8{fill-rule:evenodd;clip-rule:evenodd;fill:#FF0000;}
	.st9{fill:none;stroke:#E6E6E6;stroke-width:4;stroke-miterlimit:10;}
	.st10{fill:none;stroke:#4D4D4D;stroke-width:3;stroke-miterlimit:10;}
	.st11{fill:none;stroke:#999999;stroke-width:4;stroke-miterlimit:10;}
	.st12{fill:#FFFFFF;stroke:#FF0000;stroke-width:8;stroke-miterlimit:10;}
	.st13{fill:#FFFFFF;stroke:#999999;stroke-width:4;stroke-miterlimit:10;}
	.st14{fill:none;stroke:#999999;stroke-width:3;stroke-miterlimit:10;}
	.st15{fill:#ED1C24;}
	.st16{fill:none;stroke:#E6E6E6;stroke-width:2;stroke-miterlimit:10;}
	.st17{fill:none;stroke:#ED1C24;stroke-width:4;stroke-miterlimit:10;}
	.st18{fill:#FFFFFF;}
	.st19{clip-path:url(#SVGID_2_);}
	.st20{fill:#999999;stroke:#999999;stroke-width:2;stroke-miterlimit:10;}
	.st21{clip-path:url(#SVGID_4_);}
	.st22{clip-path:url(#SVGID_6_);}
	.st23{clip-path:url(#SVGID_8_);}
	.st24{fill:none;stroke:#ED1C24;stroke-width:8;stroke-miterlimit:10;}
	.st25{clip-path:url(#SVGID_10_);}
	.st26{fill:#999999;stroke:#999999;stroke-width:4;stroke-miterlimit:10;}
	.st27{fill:none;stroke:#E6E6E6;stroke-width:8;stroke-miterlimit:10;}
	.st28{clip-path:url(#SVGID_12_);}
	.st29{fill:#B3B3B3;}
</style>
<rect x="-3756" y="4495.8" class="st0" width="3177.6" height="489.2"/>
<g>
	<line class="st1" x1="-569.3" y1="2935.6" x2="-647.3" y2="3013.6"/>
	<line class="st1" x1="-647.3" y1="2935.6" x2="-569.3" y2="3013.6"/>
</g>
<g>
	<rect x="-3759.5" y="2932" style="fill:none;" width="1362.2" height="99.6"/>
	<text transform="matrix(1 0 0 1 -3759.5334 3016.1174)"><tspan x="0" y="0" style="fill:#333333; font-family:'Roboto-Light'; font-size:112.1362px;">Search Results for “</tspan><tspan x="959.8" y="0" style="fill:#333333; font-family:'Roboto-Bold'; font-size:112.1362px;">Shoes</tspan><tspan x="1273.2" y="0" style="fill:#333333; font-family:'Roboto-Light'; font-size:112.1362px;">”</tspan></text>
</g>
<rect x="-4992.5" y="3463" style="fill:none;" width="197.2" height="38.6"/>
<text transform="matrix(1 0 0 1 -4992.5332 3498.2654)" style="fill:#231F20; font-family:'Roboto-Bold'; font-size:47px;">Category</text>
<line class="st2" x1="-5017.3" y1="3462.6" x2="-5017.3" y2="3499.6"/>
<polygon class="st3" points="-4771.9,3477.9 -4785.4,3492.1 -4758.4,3492.1 "/>
<rect x="-4951.5" y="3558" style="fill:none;" width="646.2" height="115.6"/>
<text transform="matrix(1 0 0 1 -4951.5342 3588.0144)" style="fill:#4D4D4D; font-family:'Roboto-Regular'; font-size:40px;">Zapatillas Running Mujer</text>
<rect x="-4951.5" y="3674" style="fill:none;" width="646.2" height="115.6"/>
<text transform="matrix(1 0 0 1 -4951.5342 3704.0144)" style="fill:#4D4D4D; font-family:'Roboto-Regular'; font-size:40px;">Zapatillas Outdoor Kids</text>
<rect x="-4951.5" y="3785" style="fill:none;" width="646.2" height="115.6"/>
<text transform="matrix(1 0 0 1 -4951.5342 3815.0144)" style="fill:#4D4D4D; font-family:'Roboto-Regular'; font-size:40px;">Consola PS4</text>
<line class="st4" x1="-5023.3" y1="3405.1" x2="-4009.3" y2="3405.1"/>
<line class="st4" x1="-5024.3" y1="3883.1" x2="-4010.3" y2="3883.1"/>
<g>
	<rect x="-4992.5" y="3927" style="fill:none;" width="124.2" height="38.6"/>
	<text transform="matrix(1 0 0 1 -4992.5332 3962.2654)" style="fill:#231F20; font-family:'Roboto-Bold'; font-size:47px;">Size</text>
</g>
<line class="st2" x1="-5017.3" y1="3926.6" x2="-5017.3" y2="3963.6"/>
<polygon class="st3" points="-4873.9,3959.8 -4860.4,3945.6 -4887.4,3945.6 "/>
<line class="st4" x1="-5024.3" y1="4014.1" x2="-4010.3" y2="4014.1"/>
<g>
	<rect x="-4992.5" y="4077" style="fill:none;" width="201.2" height="38.6"/>
	<text transform="matrix(1 0 0 1 -4992.5332 4112.2651)" style="fill:#231F20; font-family:'Roboto-Bold'; font-size:47px;">Colours</text>
</g>
<line class="st2" x1="-5017.3" y1="4077.6" x2="-5017.3" y2="4114.6"/>
<polygon class="st3" points="-4802.9,4110.8 -4789.4,4096.6 -4816.4,4096.6 "/>
<line class="st4" x1="-5024.3" y1="4165.1" x2="-4010.3" y2="4165.1"/>
<rect x="-5091.3" y="2047.6" class="st5" width="4624" height="762"/>
<g>
	<g>
		<rect x="-3757" y="3074.8" style="fill:none;" width="896.5" height="45.8"/>
		<text transform="matrix(1 0 0 1 -3757.0291 3117.6943)"><tspan x="0" y="0" style="fill:#808080; font-family:'Roboto-Light'; font-size:57.1557px;">Displ</tspan><tspan x="123.7" y="0" style="fill:#808080; font-family:'Roboto-Light'; font-size:57.1557px;">a</tspan><tspan x="153.9" y="0" style="fill:#808080; font-family:'Roboto-Light'; font-size:57.1557px;">ying </tspan><tspan x="270.8" y="0" style="fill:#231F20; font-family:'Roboto-Bold'; font-size:57.1557px;">657</tspan><tspan x="369.2" y="0" style="fill:#808080; font-family:'Roboto-Light'; font-size:57.1557px;"> </tspan><tspan x="383.1" y="0" style="fill:#808080; font-family:'Roboto-Light'; font-size:57.1557px;">r</tspan><tspan x="401.8" y="0" style="fill:#808080; font-family:'Roboto-Light'; font-size:57.1557px;">esults</tspan></text>
	</g>
</g>
<g>
	<rect x="-3759.5" y="3245.5" style="fill:none;" width="630.7" height="55.1"/>
	<text transform="matrix(1 0 0 1 -3759.5281 3280.7656)"><tspan x="0" y="0" class="st7" style="font-family:'Roboto-Light'; font-size:47px;">Sort by </tspan><tspan x="156.3" y="0" style="fill:#FF0000; font-family:'Roboto-Light'; font-size:47px;">Price</tspan></text>
</g>
<g>
	<rect x="-4219.3" y="2931.5" style="fill:none;" width="209.5" height="55.1"/>
	<text transform="matrix(1 0 0 1 -4217.71 2961.5156)" style="fill:#FF0000; font-family:'Roboto-Light'; font-size:40px;">Clear Filters</text>
</g>
<g>
	<rect x="-1254.3" y="3246.5" style="fill:none;" width="594" height="41.1"/>
	<text transform="matrix(1 0 0 1 -1254.3436 3281.7656)"><tspan x="0" y="0" class="st7" style="font-family:'Roboto-Light'; font-size:47px;">1</tspan><tspan x="26" y="0" class="st7" style="font-family:'Roboto-Light'; font-size:47px; letter-spacing:12;">	</tspan><tspan x="49.6" y="0" class="st7" style="font-family:'Roboto-Light'; font-size:47px; letter-spacing:38;">	</tspan><tspan x="99.2" y="0" style="fill:#FF0000; font-family:'Roboto-Bold'; font-size:47px;">2</tspan><tspan x="126.1" y="0" class="st7" style="font-family:'Roboto-Light'; font-size:47px; letter-spacing:11;">	</tspan><tspan x="148.8" y="0" class="st7" style="font-family:'Roboto-Light'; font-size:47px; letter-spacing:38;">	</tspan><tspan x="198.3" y="0" class="st7" style="font-family:'Roboto-Light'; font-size:47px;">3</tspan><tspan x="224.4" y="0" class="st7" style="font-family:'Roboto-Light'; font-size:47px; letter-spacing:12;">	</tspan><tspan x="247.9" y="0" class="st7" style="font-family:'Roboto-Light'; font-size:47px;">...</tspan><tspan x="281.6" y="0" class="st7" style="font-family:'Roboto-Light'; font-size:47px; letter-spacing:4;">	</tspan><tspan x="297.5" y="0" class="st7" style="font-family:'Roboto-Light'; font-size:47px;">89</tspan></text>
</g>
<line class="st6" x1="-674.3" y1="3229.4" x2="-674.3" y2="3301.4"/>
<path class="st7" d="M-746,3262.2h-20.9c-1.6,0-2.9-1.3-2.9-2.9v-20.9c0-1.6,1.3-2.9,2.9-2.9h20.9c1.6,0,2.9,1.3,2.9,2.9v20.9  C-743,3260.9-744.3,3262.2-746,3262.2z"/>
<path class="st7" d="M-713.8,3262.2h-20.9c-1.6,0-2.9-1.3-2.9-2.9v-20.9c0-1.6,1.3-2.9,2.9-2.9h20.9c1.6,0,2.9,1.3,2.9,2.9v20.9  C-710.8,3260.9-712.2,3262.2-713.8,3262.2z"/>
<path class="st7" d="M-581.3,3250.6h-53.4c-1.6,0-2.9-1.3-2.9-2.9v-9.3c0-1.6,1.3-2.9,2.9-2.9h53.4c1.6,0,2.9,1.3,2.9,2.9v9.3  C-578.3,3249.3-579.7,3250.6-581.3,3250.6z"/>
<path class="st7" d="M-581.3,3272.6h-53.4c-1.6,0-2.9-1.3-2.9-2.9v-9.3c0-1.6,1.3-2.9,2.9-2.9h53.4c1.6,0,2.9,1.3,2.9,2.9v9.3  C-578.3,3271.3-579.7,3272.6-581.3,3272.6z"/>
<path class="st7" d="M-581.3,3294.6h-53.4c-1.6,0-2.9-1.3-2.9-2.9v-9.3c0-1.6,1.3-2.9,2.9-2.9h53.4c1.6,0,2.9,1.3,2.9,2.9v9.3  C-578.3,3293.3-579.7,3294.6-581.3,3294.6z"/>
<path class="st7" d="M-746,3294.4h-20.9c-1.6,0-2.9-1.3-2.9-2.9v-20.9c0-1.6,1.3-2.9,2.9-2.9h20.9c1.6,0,2.9,1.3,2.9,2.9v20.9  C-743,3293.1-744.3,3294.4-746,3294.4z"/>
<path class="st7" d="M-713.8,3294.4h-20.9c-1.6,0-2.9-1.3-2.9-2.9v-20.9c0-1.6,1.3-2.9,2.9-2.9h20.9c1.6,0,2.9,1.3,2.9,2.9v20.9  C-710.8,3293.1-712.2,3294.4-713.8,3294.4z"/>
<polygon class="st8" points="-3464.3,3276.8 -3450.8,3262.6 -3477.8,3262.6 "/>
<line class="st9" x1="-3935" y1="2932.1" x2="-3935" y2="5147.1"/>
<path class="st10" d="M-4992.3,3595.1h-26.5c-3,0-5.5-2.5-5.5-5.5v-26.5c0-3,2.5-5.5,5.5-5.5h26.5c3,0,5.5,2.5,5.5,5.5v26.5  C-4986.8,3592.6-4989.3,3595.1-4992.3,3595.1z"/>
<path class="st10" d="M-4992.3,3711.1h-26.5c-3,0-5.5-2.5-5.5-5.5v-26.5c0-3,2.5-5.5,5.5-5.5h26.5c3,0,5.5,2.5,5.5,5.5v26.5  C-4986.8,3708.6-4989.3,3711.1-4992.3,3711.1z"/>
<path class="st10" d="M-4992.3,3823.1h-26.5c-3,0-5.5-2.5-5.5-5.5v-26.5c0-3,2.5-5.5,5.5-5.5h26.5c3,0,5.5,2.5,5.5,5.5v26.5  C-4986.8,3820.6-4989.3,3823.1-4992.3,3823.1z"/>
<g>
	<g>
		<rect x="-4992.1" y="3027.9" style="fill:none;" width="124.2" height="38.6"/>
		<text transform="matrix(1 0 0 1 -4992.146 3063.104)" style="fill:#231F20; font-family:'Roboto-Bold'; font-size:47px;">Price</text>
	</g>
	<line class="st2" x1="-5017" y1="3027.4" x2="-5017" y2="3064.4"/>
	<polygon class="st3" points="-4852.6,3042.7 -4866.1,3056.9 -4839.1,3056.9  "/>
	<rect x="-4992.1" y="3157.9" style="fill:none;" width="646.2" height="115.6"/>
	<text transform="matrix(1 0 0 1 -4992.147 3187.853)" style="fill:#4D4D4D; font-family:'Roboto-Regular'; font-size:40px;">25.00</text>
	<rect x="-5030.1" y="3302.9" style="fill:none;" width="67.2" height="23.6"/>
	<text transform="matrix(1 0 0 1 -5030.146 3321.604)" class="st7" style="font-family:'Roboto-Bold'; font-size:25px;">25.00</text>
	<rect x="-4484.6" y="3302.9" style="fill:none;" width="79.2" height="23.6"/>
	<text transform="matrix(1 0 0 1 -4484.5513 3321.604)" class="st7" style="font-family:'Roboto-Bold'; font-size:25px;">525,00</text>
	<rect x="-4101" y="3302.9" style="fill:none;" width="80" height="23.6"/>
	<text transform="matrix(1 0 0 1 -4100.957 3321.604)" class="st7" style="font-family:'Roboto-Bold'; font-size:25px;">525.00</text>
	<rect x="-4445.1" y="3157.9" style="fill:none;" width="296.2" height="46.6"/>
	<text transform="matrix(1 0 0 1 -4445.1465 3187.854)" style="fill:#4D4D4D; font-family:'Roboto-Regular'; font-size:40px;">525.00</text>
	<line class="st11" x1="-4445" y1="3276.9" x2="-4061" y2="3276.9"/>
	<line class="st12" x1="-4983" y1="3277.4" x2="-4445" y2="3277.4"/>
	<path class="st4" d="M-4598.4,3220.9h-409c-5.6,0-10.1-4.5-10.1-10.1V3132c0-5.6,4.5-10.1,10.1-10.1h409c5.6,0,10.1,4.5,10.1,10.1   v78.8C-4588.3,3216.4-4592.8,3220.9-4598.4,3220.9z"/>
	<path class="st4" d="M-4053.1,3220.9h-409c-5.6,0-10.1-4.5-10.1-10.1V3132c0-5.6,4.5-10.1,10.1-10.1h409c5.6,0,10.1,4.5,10.1,10.1   v78.8C-4043,3216.4-4047.5,3220.9-4053.1,3220.9z"/>
	<line class="st11" x1="-4540" y1="3175.4" x2="-4513" y2="3175.4"/>
	<circle class="st12" cx="-4992" cy="3277.4" r="11"/>
	<circle class="st12" cx="-4445" cy="3277.4" r="11"/>
	<circle class="st13" cx="-4061" cy="3277.4" r="6"/>
</g>
<polyline class="st14" points="-864.3,3249.7 -850.3,3263.6 -864.3,3277.5 "/>
<polyline class="st14" points="-850.3,3249.7 -836.3,3263.6 -850.3,3277.5 "/>
<polyline class="st14" points="-1284.3,3249.7 -1298.3,3263.6 -1284.3,3277.5 "/>
<polyline class="st14" points="-1298.3,3249.7 -1312.3,3263.6 -1298.3,3277.5 "/>
<g>
	<line class="st1" x1="-569.3" y1="-368.4" x2="-647.3" y2="-290.4"/>
	<line class="st1" x1="-647.3" y1="-368.4" x2="-569.3" y2="-290.4"/>
</g>
<g>
	<rect x="-3759.5" y="-372" style="fill:none;" width="1362.2" height="99.6"/>
	<text transform="matrix(1 0 0 1 -3759.5334 -287.8826)"><tspan x="0" y="0" style="fill:#333333; font-family:'Roboto-Light'; font-size:112.1362px;">Search Results for “</tspan><tspan x="959.8" y="0" style="fill:#333333; font-family:'Roboto-Bold'; font-size:112.1362px;">Shoes</tspan><tspan x="1273.2" y="0" style="fill:#333333; font-family:'Roboto-Light'; font-size:112.1362px;">”</tspan></text>
</g>
<rect x="-4992.5" y="159" style="fill:none;" width="197.2" height="38.6"/>
<text transform="matrix(1 0 0 1 -4992.5332 194.2654)" style="fill:#231F20; font-family:'Roboto-Bold'; font-size:47px;">Category</text>
<line class="st2" x1="-5017.3" y1="158.6" x2="-5017.3" y2="195.6"/>
<polygon class="st3" points="-4771.9,173.9 -4785.4,188.1 -4758.4,188.1 "/>
<rect x="-4951.5" y="254" style="fill:none;" width="646.2" height="115.6"/>
<text transform="matrix(1 0 0 1 -4951.5342 284.0144)" style="fill:#4D4D4D; font-family:'Roboto-Regular'; font-size:40px;">Zapatillas Running Mujer</text>
<rect x="-4951.5" y="370" style="fill:none;" width="646.2" height="115.6"/>
<text transform="matrix(1 0 0 1 -4951.5342 400.0144)" style="fill:#4D4D4D; font-family:'Roboto-Regular'; font-size:40px;">Zapatillas Outdoor Kids</text>
<rect x="-4951.5" y="481" style="fill:none;" width="646.2" height="115.6"/>
<text transform="matrix(1 0 0 1 -4951.5342 511.0144)" style="fill:#4D4D4D; font-family:'Roboto-Regular'; font-size:40px;">Consola PS4</text>
<line class="st4" x1="-5023.3" y1="101.1" x2="-4009.3" y2="101.1"/>
<line class="st4" x1="-5024.3" y1="579.1" x2="-4010.3" y2="579.1"/>
<g>
	<rect x="-4992.5" y="623" style="fill:none;" width="124.2" height="38.6"/>
	<text transform="matrix(1 0 0 1 -4992.5332 658.2654)" style="fill:#231F20; font-family:'Roboto-Bold'; font-size:47px;">Size</text>
</g>
<line class="st2" x1="-5017.3" y1="622.6" x2="-5017.3" y2="659.6"/>
<polygon class="st3" points="-4873.9,655.8 -4860.4,641.6 -4887.4,641.6 "/>
<line class="st4" x1="-5024.3" y1="710.1" x2="-4010.3" y2="710.1"/>
<g>
	<rect x="-4992.5" y="773" style="fill:none;" width="201.2" height="38.6"/>
	<text transform="matrix(1 0 0 1 -4992.5332 808.2654)" style="fill:#231F20; font-family:'Roboto-Bold'; font-size:47px;">Colours</text>
</g>
<line class="st2" x1="-5017.3" y1="773.6" x2="-5017.3" y2="810.6"/>
<polygon class="st3" points="-4802.9,806.8 -4789.4,792.6 -4816.4,792.6 "/>
<line class="st4" x1="-5024.3" y1="861.1" x2="-4010.3" y2="861.1"/>
<rect x="-5091.3" y="-1256.4" class="st5" width="4624" height="762"/>
<g>
	<g>
		<rect x="-3757" y="-229.2" style="fill:none;" width="896.5" height="45.8"/>
		<text transform="matrix(1 0 0 1 -3757.0291 -186.3057)"><tspan x="0" y="0" style="fill:#808080; font-family:'Roboto-Light'; font-size:57.1557px;">Displaying </tspan><tspan x="271.2" y="0" style="fill:#231F20; font-family:'Roboto-Bold'; font-size:57.1557px;">657</tspan><tspan x="369.6" y="0" style="fill:#808080; font-family:'Roboto-Light'; font-size:57.1557px;"> results</tspan></text>
	</g>
</g>
<g>
	<rect x="-3759.5" y="-58.5" style="fill:none;" width="630.7" height="55.1"/>
	<text transform="matrix(1 0 0 1 -3759.5281 -23.2344)"><tspan x="0" y="0" class="st7" style="font-family:'Roboto-Light'; font-size:47px;">Sort by </tspan><tspan x="156.3" y="0" style="fill:#FF0000; font-family:'Roboto-Light'; font-size:47px;">Price</tspan></text>
</g>
<g>
	<rect x="-4219.3" y="-372.5" style="fill:none;" width="209.5" height="55.1"/>
	<text transform="matrix(1 0 0 1 -4217.71 -342.4844)" style="fill:#FF0000; font-family:'Roboto-Light'; font-size:40px;">Clear Filters</text>
</g>
<g>
	<rect x="-1254.3" y="-57.5" style="fill:none;" width="594" height="41.1"/>
	<text transform="matrix(1 0 0 1 -1254.3436 -22.2344)"><tspan x="0" y="0" class="st7" style="font-family:'Roboto-Light'; font-size:47px;">1</tspan><tspan x="26" y="0" class="st7" style="font-family:'Roboto-Light'; font-size:47px; letter-spacing:12;">	</tspan><tspan x="49.6" y="0" class="st7" style="font-family:'Roboto-Light'; font-size:47px; letter-spacing:38;">	</tspan><tspan x="99.2" y="0" style="fill:#FF0000; font-family:'Roboto-Bold'; font-size:47px;">2</tspan><tspan x="126.1" y="0" class="st7" style="font-family:'Roboto-Light'; font-size:47px; letter-spacing:11;">	</tspan><tspan x="148.8" y="0" class="st7" style="font-family:'Roboto-Light'; font-size:47px; letter-spacing:38;">	</tspan><tspan x="198.3" y="0" class="st7" style="font-family:'Roboto-Light'; font-size:47px;">3</tspan><tspan x="224.4" y="0" class="st7" style="font-family:'Roboto-Light'; font-size:47px; letter-spacing:12;">	</tspan><tspan x="247.9" y="0" class="st7" style="font-family:'Roboto-Light'; font-size:47px;">...</tspan><tspan x="281.6" y="0" class="st7" style="font-family:'Roboto-Light'; font-size:47px; letter-spacing:4;">	</tspan><tspan x="297.5" y="0" class="st7" style="font-family:'Roboto-Light'; font-size:47px;">89</tspan></text>
</g>
<line class="st6" x1="-674.3" y1="-74.6" x2="-674.3" y2="-2.6"/>
<path class="st7" d="M-746-41.8h-20.9c-1.6,0-2.9-1.3-2.9-2.9v-20.9c0-1.6,1.3-2.9,2.9-2.9h20.9c1.6,0,2.9,1.3,2.9,2.9v20.9  C-743-43.1-744.3-41.8-746-41.8z"/>
<path class="st7" d="M-713.8-41.8h-20.9c-1.6,0-2.9-1.3-2.9-2.9v-20.9c0-1.6,1.3-2.9,2.9-2.9h20.9c1.6,0,2.9,1.3,2.9,2.9v20.9  C-710.8-43.1-712.2-41.8-713.8-41.8z"/>
<path class="st7" d="M-581.3-53.4h-53.4c-1.6,0-2.9-1.3-2.9-2.9v-9.3c0-1.6,1.3-2.9,2.9-2.9h53.4c1.6,0,2.9,1.3,2.9,2.9v9.3  C-578.3-54.7-579.7-53.4-581.3-53.4z"/>
<path class="st7" d="M-581.3-31.4h-53.4c-1.6,0-2.9-1.3-2.9-2.9v-9.3c0-1.6,1.3-2.9,2.9-2.9h53.4c1.6,0,2.9,1.3,2.9,2.9v9.3  C-578.3-32.7-579.7-31.4-581.3-31.4z"/>
<path class="st7" d="M-581.3-9.4h-53.4c-1.6,0-2.9-1.3-2.9-2.9v-9.3c0-1.6,1.3-2.9,2.9-2.9h53.4c1.6,0,2.9,1.3,2.9,2.9v9.3  C-578.3-10.7-579.7-9.4-581.3-9.4z"/>
<path class="st7" d="M-746-9.6h-20.9c-1.6,0-2.9-1.3-2.9-2.9v-20.9c0-1.6,1.3-2.9,2.9-2.9h20.9c1.6,0,2.9,1.3,2.9,2.9v20.9  C-743-10.9-744.3-9.6-746-9.6z"/>
<path class="st7" d="M-713.8-9.6h-20.9c-1.6,0-2.9-1.3-2.9-2.9v-20.9c0-1.6,1.3-2.9,2.9-2.9h20.9c1.6,0,2.9,1.3,2.9,2.9v20.9  C-710.8-10.9-712.2-9.6-713.8-9.6z"/>
<polygon class="st8" points="-3464.3,-27.2 -3450.8,-41.4 -3477.8,-41.4 "/>
<line class="st9" x1="-3935" y1="-371.9" x2="-3935" y2="1843.1"/>
<path class="st15" d="M-2858.8,1568.2h-169.5c-6.6,0-12-5.4-12-12v-85.1c0-6.6,5.4-12,12-12h169.5c6.6,0,12,5.4,12,12v85.1  C-2846.8,1562.8-2852.2,1568.2-2858.8,1568.2z"/>
<rect x="-3757.2" y="189.9" class="st16" width="976.4" height="1442.6"/>
<line class="st17" x1="-3758.1" y1="189" x2="-2781.7" y2="189"/>
<rect x="-2977.1" y="1441.9" transform="matrix(6.944425e-03 -1 1 6.944425e-03 -4442.0542 -1435.111)" style="fill:none;" width="67" height="154.1"/>
<text transform="matrix(1 0 0 1 -3020.4456 1537.709)" class="st18" style="font-family:'Roboto-Light'; font-size:70.3692px;">-50%</text>
<g>
	<rect x="-3691.2" y="259.7" class="st18" width="843.5" height="843.5"/>
	<g>
		<defs>
			<rect id="SVGID_1_" x="-3613.6" y="337.2" width="688.5" height="688.5"/>
		</defs>
		<clipPath id="SVGID_2_">
			<use xlink:href="#SVGID_1_" style="overflow:visible;"/>
		</clipPath>
		<g class="st19">
			
				<image style="overflow:visible;" width="333" height="482" id="bCsqqg_3_" xlink:href="9A4CAF8D7C5FC023.jpg" transform="matrix(2.0675 0 0 2.0675 -3613.0764 18.3271)">
			</image>
		</g>
	</g>
</g>
<rect x="-3691.1" y="1157.1" style="fill:none;" width="833.7" height="53.9"/>
<text transform="matrix(1 0 0 1 -3691.0876 1196.7178)" style="fill:#4D4D4D; font-family:'Roboto-Bold'; font-size:52.7769px;">Nike Impactshock 2000</text>
<rect x="-3691.1" y="1241.6" style="fill:none;" width="833.7" height="53.9"/>
<text transform="matrix(1 0 0 1 -3691.0876 1274.5635)" class="st7" style="font-family:'Roboto-Regular'; font-size:43.9808px;">Shoes Men </text>
<rect x="-3712.4" y="1405.6" style="fill:none;" width="266" height="72"/>
<text transform="matrix(1 0 0 1 -3712.4495 1458.373)" style="fill:#4D4D4D; font-family:'Roboto-Bold'; font-size:70.3692px;">$250.00 </text>
<g>
	<rect x="-3712.7" y="1347.1" style="fill:none;" width="192.6" height="44.3"/>
	<text transform="matrix(1 0 0 1 -3683.9324 1380.0547)" class="st7" style="font-family:'Roboto-Regular'; font-size:43.9808px;">$50.00</text>
	<line class="st20" x1="-3698.7" y1="1364.1" x2="-3543" y2="1364.1"/>
</g>
<line class="st16" x1="-3697.4" y1="1102.9" x2="-2840.7" y2="1102.9"/>
<path class="st15" d="M-3757.6,274h293.5c8.3,0,15-6.7,15-15v-68.9h-308.5V274z"/>
<rect x="-3701.1" y="206.4" style="fill:none;" width="195.6" height="51.2"/>
<text transform="matrix(1 0 0 1 -3701.1194 247.6572)" class="st18" style="font-family:'Roboto-Regular'; font-size:54.945px;">On Sale</text>
<path class="st15" d="M-1757.6,1568.2h-169.5c-6.6,0-12-5.4-12-12v-85.1c0-6.6,5.4-12,12-12h169.5c6.6,0,12,5.4,12,12v85.1  C-1745.6,1562.8-1751,1568.2-1757.6,1568.2z"/>
<rect x="-2656" y="189.9" class="st16" width="976.4" height="1442.6"/>
<line class="st17" x1="-2656.9" y1="189" x2="-1680.5" y2="189"/>
<rect x="-1875.8" y="1441.9" transform="matrix(6.944425e-03 -1 1 6.944425e-03 -3348.4465 -333.8822)" style="fill:none;" width="67" height="154.1"/>
<text transform="matrix(1 0 0 1 -1919.1903 1537.709)" class="st18" style="font-family:'Roboto-Light'; font-size:70.3692px;">-50%</text>
<g>
	<rect x="-2589.9" y="259.7" class="st18" width="843.5" height="843.5"/>
	<g>
		<defs>
			<rect id="SVGID_3_" x="-2512.4" y="337.2" width="688.5" height="688.5"/>
		</defs>
		<clipPath id="SVGID_4_">
			<use xlink:href="#SVGID_3_" style="overflow:visible;"/>
		</clipPath>
		<g class="st21">
			
				<image style="overflow:visible;" width="333" height="482" id="bCsqqg_2_" xlink:href="9A4CAF8D7C5FC021.jpg" transform="matrix(2.0675 0 0 2.0675 -2511.821 18.3271)">
			</image>
		</g>
	</g>
</g>
<rect x="-2589.8" y="1157.1" style="fill:none;" width="833.7" height="53.9"/>
<text transform="matrix(1 0 0 1 -2589.8323 1196.7178)" style="fill:#4D4D4D; font-family:'Roboto-Bold'; font-size:52.7769px;">Nike Impactshock 2000</text>
<rect x="-2589.8" y="1241.6" style="fill:none;" width="833.7" height="53.9"/>
<text transform="matrix(1 0 0 1 -2589.8323 1274.5635)" class="st7" style="font-family:'Roboto-Regular'; font-size:43.9808px;">Shoes Men </text>
<rect x="-2611.2" y="1405.6" style="fill:none;" width="266" height="72"/>
<text transform="matrix(1 0 0 1 -2611.1941 1458.373)" style="fill:#4D4D4D; font-family:'Roboto-Bold'; font-size:70.3692px;">$250.00 </text>
<g>
	<rect x="-2611.5" y="1347.1" style="fill:none;" width="192.6" height="44.3"/>
	<text transform="matrix(1 0 0 1 -2582.677 1380.0547)" class="st7" style="font-family:'Roboto-Regular'; font-size:43.9808px;">$50.00</text>
	<line class="st20" x1="-2597.4" y1="1364.1" x2="-2441.7" y2="1364.1"/>
</g>
<rect x="-3128.2" y="3792.6" style="fill:none;" width="394.9" height="72"/>
<text transform="matrix(1 0 0 1 -3128.1936 3860.0962)" style="fill:#4D4D4D; font-family:'Roboto-Bold'; font-size:90px;">$250.00 </text>
<rect x="-3128.5" y="3719.6" style="fill:none;" width="204.1" height="58.8"/>
<text transform="matrix(1 0 0 1 -3118.5261 3764.5938)" class="st7" style="font-family:'Roboto-Regular'; font-size:60px;">$50.00</text>
<line class="st16" x1="-2596.2" y1="1102.9" x2="-1739.4" y2="1102.9"/>
<path class="st15" d="M-2656.3,274h293.5c8.3,0,15-6.7,15-15v-68.9h-308.5V274z"/>
<rect x="-2599.9" y="206.4" style="fill:none;" width="195.6" height="51.2"/>
<text transform="matrix(1 0 0 1 -2599.864 247.6572)" class="st18" style="font-family:'Roboto-Regular'; font-size:54.945px;">On Sale</text>
<path class="st15" d="M-656.3,1568.2h-169.5c-6.6,0-12-5.4-12-12v-85.1c0-6.6,5.4-12,12-12h169.5c6.6,0,12,5.4,12,12v85.1  C-644.3,1562.8-649.7,1568.2-656.3,1568.2z"/>
<rect x="-1554.7" y="189.9" class="st16" width="976.4" height="1442.6"/>
<line class="st17" x1="-1555.6" y1="189" x2="-579.2" y2="189"/>
<rect x="-774.6" y="1441.9" transform="matrix(6.944425e-03 -1 1 6.944425e-03 -2254.8389 767.3467)" style="fill:none;" width="67" height="154.1"/>
<text transform="matrix(1 0 0 1 -817.9349 1537.709)" class="st18" style="font-family:'Roboto-Light'; font-size:70.3692px;">-50%</text>
<g>
	<rect x="-1488.7" y="259.7" class="st18" width="843.5" height="843.5"/>
	<g>
		<defs>
			<rect id="SVGID_5_" x="-1411.1" y="337.2" width="688.5" height="688.5"/>
		</defs>
		<clipPath id="SVGID_6_">
			<use xlink:href="#SVGID_5_" style="overflow:visible;"/>
		</clipPath>
		<g class="st22">
			
				<image style="overflow:visible;" width="333" height="482" id="bCsqqg_1_" xlink:href="9A4CAF8D7C5FC027.jpg" transform="matrix(2.0675 0 0 2.0675 -1410.5657 18.3271)">
			</image>
		</g>
	</g>
</g>
<rect x="-1488.6" y="1157.1" style="fill:none;" width="833.7" height="53.9"/>
<text transform="matrix(1 0 0 1 -1488.577 1196.7178)" style="fill:#4D4D4D; font-family:'Roboto-Bold'; font-size:52.7769px;">Nike Impactshock 2000</text>
<rect x="-1488.6" y="1241.6" style="fill:none;" width="833.7" height="53.9"/>
<text transform="matrix(1 0 0 1 -1488.577 1274.5635)" class="st7" style="font-family:'Roboto-Regular'; font-size:43.9808px;">Shoes Men </text>
<rect x="-1509.9" y="1405.6" style="fill:none;" width="266" height="72"/>
<text transform="matrix(1 0 0 1 -1509.9384 1458.373)" style="fill:#4D4D4D; font-family:'Roboto-Bold'; font-size:70.3692px;">$250.00 </text>
<g>
	<rect x="-1510.2" y="1347.1" style="fill:none;" width="192.6" height="44.3"/>
	<text transform="matrix(1 0 0 1 -1481.4213 1380.0547)" class="st7" style="font-family:'Roboto-Regular'; font-size:43.9808px;">$50.00</text>
	<line class="st20" x1="-1496.1" y1="1364.1" x2="-1340.5" y2="1364.1"/>
</g>
<line class="st16" x1="-1494.9" y1="1102.9" x2="-638.2" y2="1102.9"/>
<path class="st15" d="M-1555,274h293.5c8.3,0,15-6.7,15-15v-68.9H-1555V274z"/>
<rect x="-1498.6" y="206.4" style="fill:none;" width="195.6" height="51.2"/>
<text transform="matrix(1 0 0 1 -1498.6083 247.6572)" class="st18" style="font-family:'Roboto-Regular'; font-size:54.945px;">On Sale</text>
<path class="st10" d="M-4992.3,291.1h-26.5c-3,0-5.5-2.5-5.5-5.5v-26.5c0-3,2.5-5.5,5.5-5.5h26.5c3,0,5.5,2.5,5.5,5.5v26.5  C-4986.8,288.6-4989.3,291.1-4992.3,291.1z"/>
<path class="st10" d="M-4992.3,407.1h-26.5c-3,0-5.5-2.5-5.5-5.5v-26.5c0-3,2.5-5.5,5.5-5.5h26.5c3,0,5.5,2.5,5.5,5.5v26.5  C-4986.8,404.6-4989.3,407.1-4992.3,407.1z"/>
<path class="st10" d="M-4992.3,519.1h-26.5c-3,0-5.5-2.5-5.5-5.5v-26.5c0-3,2.5-5.5,5.5-5.5h26.5c3,0,5.5,2.5,5.5,5.5v26.5  C-4986.8,516.6-4989.3,519.1-4992.3,519.1z"/>
<g>
	<g>
		<rect x="-4992.1" y="-276.1" style="fill:none;" width="124.2" height="38.6"/>
		<text transform="matrix(1 0 0 1 -4992.146 -240.896)" style="fill:#231F20; font-family:'Roboto-Bold'; font-size:47px;">Price</text>
	</g>
	<line class="st2" x1="-5017" y1="-276.6" x2="-5017" y2="-239.6"/>
	<polygon class="st3" points="-4852.6,-261.3 -4866.1,-247.1 -4839.1,-247.1  "/>
	<rect x="-4992.1" y="-146.1" style="fill:none;" width="646.2" height="115.6"/>
	<text transform="matrix(1 0 0 1 -4992.147 -116.147)" style="fill:#4D4D4D; font-family:'Roboto-Regular'; font-size:40px;">25.00</text>
	<rect x="-5030.1" y="-1.1" style="fill:none;" width="67.2" height="23.6"/>
	<text transform="matrix(1 0 0 1 -5030.146 17.604)" class="st7" style="font-family:'Roboto-Bold'; font-size:25px;">25.00</text>
	<rect x="-4484.6" y="-1.1" style="fill:none;" width="79.2" height="23.6"/>
	<text transform="matrix(1 0 0 1 -4484.5513 17.604)" class="st7" style="font-family:'Roboto-Bold'; font-size:25px;">525,00</text>
	<rect x="-4101" y="-1.1" style="fill:none;" width="80" height="23.6"/>
	<text transform="matrix(1 0 0 1 -4100.957 17.604)" class="st7" style="font-family:'Roboto-Bold'; font-size:25px;">525.00</text>
	<rect x="-4445.1" y="-146.1" style="fill:none;" width="296.2" height="46.6"/>
	<text transform="matrix(1 0 0 1 -4445.1465 -116.146)" style="fill:#4D4D4D; font-family:'Roboto-Regular'; font-size:40px;">525.00</text>
	<line class="st11" x1="-4445" y1="-27.1" x2="-4061" y2="-27.1"/>
	<line class="st12" x1="-4983" y1="-26.6" x2="-4445" y2="-26.6"/>
	<path class="st4" d="M-4598.4-83.1h-409c-5.6,0-10.1-4.5-10.1-10.1V-172c0-5.6,4.5-10.1,10.1-10.1h409c5.6,0,10.1,4.5,10.1,10.1   v78.8C-4588.3-87.6-4592.8-83.1-4598.4-83.1z"/>
	<path class="st4" d="M-4053.1-83.1h-409c-5.6,0-10.1-4.5-10.1-10.1V-172c0-5.6,4.5-10.1,10.1-10.1h409c5.6,0,10.1,4.5,10.1,10.1   v78.8C-4043-87.6-4047.5-83.1-4053.1-83.1z"/>
	<line class="st11" x1="-4540" y1="-128.6" x2="-4513" y2="-128.6"/>
	<circle class="st12" cx="-4992" cy="-26.6" r="11"/>
	<circle class="st12" cx="-4445" cy="-26.6" r="11"/>
	<circle class="st13" cx="-4061" cy="-26.6" r="6"/>
</g>
<polyline class="st14" points="-864.3,-54.3 -850.3,-40.4 -864.3,-26.5 "/>
<polyline class="st14" points="-850.3,-54.3 -836.3,-40.4 -850.3,-26.5 "/>
<polyline class="st14" points="-1284.3,-54.3 -1298.3,-40.4 -1284.3,-26.5 "/>
<polyline class="st14" points="-1298.3,-54.3 -1312.3,-40.4 -1298.3,-26.5 "/>
<g>
	<rect x="-3756.3" y="3408.5" class="st18" width="481.8" height="481.8"/>
	<g>
		<defs>
			<rect id="SVGID_7_" x="-3712" y="3452.8" width="393.2" height="393.2"/>
		</defs>
		<clipPath id="SVGID_8_">
			<use xlink:href="#SVGID_7_" style="overflow:visible;"/>
		</clipPath>
		<g class="st23">
			
				<image style="overflow:visible;" width="333" height="482" id="bCsqqg_22_" xlink:href="9A4CAF8D7C5FC020.jpg" transform="matrix(1.1809 0 0 1.1809 -3711.6626 3270.6768)">
			</image>
		</g>
	</g>
</g>
<rect x="-3756" y="3405.8" class="st16" width="3177.6" height="489.2"/>
<line class="st24" x1="-3756.9" y1="3405.5" x2="-578.3" y2="3405.5"/>
<g>
	<rect x="-3128.2" y="3453.1" style="fill:none;" width="1574.9" height="127.5"/>
	<text transform="matrix(1 0 0 1 -3128.2141 3520.6384)" style="fill:#4D4D4D; font-family:'Roboto-Light'; font-size:90px;">Nike Impactshock 2000</text>
</g>
<g>
	<rect x="-3124.2" y="3559.9" style="fill:none;" width="806.9" height="109.4"/>
	<text transform="matrix(1 0 0 1 -3124.2141 3589.9216)" class="st7" style="font-family:'Roboto-Regular'; font-size:40px;">Shoes Men </text>
</g>
<line class="st16" x1="-3240.2" y1="3452.6" x2="-3240.5" y2="3846.5"/>
<g>
	<defs>
		<rect id="SVGID_9_" x="-3711.7" y="4014" width="421.3" height="352.1"/>
	</defs>
	<clipPath id="SVGID_10_">
		<use xlink:href="#SVGID_9_" style="overflow:visible;"/>
	</clipPath>
	<g id="GSg6Xd.tif_2_" class="st25">
		
			<image style="overflow:visible;" width="828" height="1200" id="Layer_0_1_" xlink:href="9A4CAF8D7C5FC023.png" transform="matrix(0.5088 0 0 0.5088 -3711.677 3899.5515)">
		</image>
	</g>
</g>
<path class="st15" d="M-578.7,3491.7h-293.5c-8.3,0-15-6.7-15-15v-68.9h308.5V3491.7z"/>
<rect x="-830.8" y="3424.2" style="fill:none;" width="195.6" height="51.2"/>
<text transform="matrix(1 0 0 1 -830.8106 3465.3721)" class="st18" style="font-family:'Roboto-Regular'; font-size:54.945px;">On Sale</text>
<line class="st26" x1="-3114.4" y1="3743.1" x2="-2936.3" y2="3743.6"/>
<path class="st15" d="M-2775.3,3770.4h-120.6c-6.6,0-12-5.4-12-12v-57.5c0-6.6,5.4-12,12-12h120.6c6.6,0,12,5.4,12,12v57.5  C-2763.3,3765-2768.7,3770.4-2775.3,3770.4z"/>
<rect x="-2860.7" y="3676" transform="matrix(6.944425e-03 -1 1 6.944425e-03 -6549.4878 872.1176)" style="fill:none;" width="50" height="115.2"/>
<text transform="matrix(1 0 0 1 -2893.0823 3747.6416)" class="st18" style="font-family:'Roboto-Light'; font-size:52.5838px;">-50%</text>
<rect x="-3128.2" y="4337.6" style="fill:none;" width="394.9" height="72"/>
<text transform="matrix(1 0 0 1 -3128.1936 4405.0962)" style="fill:#4D4D4D; font-family:'Roboto-Bold'; font-size:90px;">$250.00 </text>
<rect x="-3128.5" y="4264.6" style="fill:none;" width="204.1" height="58.8"/>
<text transform="matrix(1 0 0 1 -3118.5261 4309.5938)" class="st7" style="font-family:'Roboto-Regular'; font-size:60px;">$50.00</text>
<rect x="-3756" y="3950.8" class="st16" width="3177.6" height="489.2"/>
<line class="st27" x1="-3756.9" y1="3950.5" x2="-578.3" y2="3950.5"/>
<line class="st27" x1="-3756.9" y1="4495.5" x2="-578.3" y2="4495.5"/>
<g>
	<rect x="-3128.2" y="3998.1" style="fill:none;" width="1574.9" height="127.5"/>
	<text transform="matrix(1 0 0 1 -3128.2141 4065.6384)" style="fill:#4D4D4D; font-family:'Roboto-Light'; font-size:90px;">Nike Impactshock 2000</text>
</g>
<g>
	<rect x="-3124.2" y="4104.9" style="fill:none;" width="806.9" height="109.4"/>
	<text transform="matrix(1 0 0 1 -3124.2141 4134.9219)" class="st7" style="font-family:'Roboto-Regular'; font-size:40px;">Shoes Men </text>
</g>
<line class="st16" x1="-3240.2" y1="3997.6" x2="-3240.5" y2="4391.5"/>
<line class="st26" x1="-3114.4" y1="4288.1" x2="-2936.3" y2="4288.6"/>
<g>
	<defs>
		<rect id="SVGID_11_" x="-3711.7" y="4559" width="421.3" height="352.1"/>
	</defs>
	<clipPath id="SVGID_12_">
		<use xlink:href="#SVGID_11_" style="overflow:visible;"/>
	</clipPath>
	<g id="GSg6Xd.tif_1_" class="st28">
		
			<image style="overflow:visible;" width="828" height="1200" id="Layer_0_2_" xlink:href="9A4CAF8D7C5FC021.png" transform="matrix(0.5088 0 0 0.5088 -3711.677 4444.5513)">
		</image>
	</g>
</g>
<rect x="-3128.2" y="4882.6" style="fill:none;" width="394.9" height="72"/>
<text transform="matrix(1 0 0 1 -3128.1936 4950.0962)" style="fill:#4D4D4D; font-family:'Roboto-Bold'; font-size:90px;">$250.00 </text>
<rect x="-3128.5" y="4809.6" style="fill:none;" width="204.1" height="58.8"/>
<text transform="matrix(1 0 0 1 -3118.5261 4854.5938)" class="st7" style="font-family:'Roboto-Regular'; font-size:60px;">$50.00</text>
<g>
	<rect x="-3128.2" y="4543.1" style="fill:none;" width="1574.9" height="127.5"/>
	<text transform="matrix(1 0 0 1 -3128.2141 4610.6387)" style="fill:#4D4D4D; font-family:'Roboto-Light'; font-size:90px;">Nike Impactshock 2000</text>
</g>
<g>
	<rect x="-3124.2" y="4649.9" style="fill:none;" width="806.9" height="109.4"/>
	<text transform="matrix(1 0 0 1 -3124.2141 4679.9219)" class="st7" style="font-family:'Roboto-Regular'; font-size:40px;">Shoes Men </text>
</g>
<line class="st16" x1="-3240.2" y1="4542.6" x2="-3240.5" y2="4936.5"/>
<line class="st26" x1="-3114.4" y1="4833.1" x2="-2936.3" y2="4833.6"/>
<g>
	<g>
		<g>
			<g>
				<path class="st29" d="M1.9,58.4c0.7,0,1.4,0.6,1.4,1.4v7H10c0.7,0,1.4,0.6,1.4,1.4c0,0.7-0.6,1.4-1.4,1.4H1.9      c-0.7,0-1.4-0.6-1.4-1.4v-8.4C0.5,59,1.1,58.4,1.9,58.4z"/>
				<path class="st29" d="M68.1,69.5H60c-0.7,0-1.4-0.6-1.4-1.4c0-0.7,0.6-1.4,1.4-1.4h6.8v-7c0-0.7,0.6-1.4,1.4-1.4      c0.7,0,1.4,0.6,1.4,1.4v8.4C69.5,68.9,68.9,69.5,68.1,69.5z"/>
				<path class="st29" d="M10,3.2H3.2v7c0,0.7-0.6,1.4-1.4,1.4c-0.7,0-1.4-0.6-1.4-1.4V1.9c0-0.7,0.6-1.4,1.4-1.4H10      c0.7,0,1.4,0.6,1.4,1.4C11.3,2.6,10.7,3.2,10,3.2z"/>
				<path class="st29" d="M68.1,11.6c-0.7,0-1.4-0.6-1.4-1.4v-7H60c-0.7,0-1.4-0.6-1.4-1.4c0-0.7,0.6-1.4,1.4-1.4h8.1      c0.7,0,1.4,0.6,1.4,1.4v8.4C69.5,11,68.9,11.6,68.1,11.6z"/>
			</g>
		</g>
	</g>
	<g>
		<path class="st29" d="M48.1,46.6c-3,4.5-6.6,8.9-9.8,12.2c-1.1,1.2-2.2,2.2-3.1,3c9.5-0.2,18.5-5.4,13.6-14.1    C48.5,47.2,48.3,46.9,48.1,46.6z"/>
		<path class="st29" d="M26.8,51c0-2.2,1.8-4,4-4c0.3,0,0.6,0,0.8,0.1c1.5-2.9,3.3-5.9,5.2-8.7c1.5-2.2,2.9-4.1,4.1-5.6    c-0.2-2.2-0.1-4.9,0.6-8.2C45.1,7.9,16.6-3.9,8.2,23.2C3,40,9.8,52.6,24.9,59.7c0.5,0.2,1.1,0.5,1.6,0.7c0.1-1.6,0.7-3.7,1.8-6.2    C27.4,53.4,26.8,52.3,26.8,51z M12.6,30.9c0-2.2,1.8-4,4-4c2.2,0,4,1.8,4,4c0,2.2-1.8,4-4,4C14.4,34.9,12.6,33.1,12.6,30.9z     M21.3,47.1c-2.2,0-4-1.8-4-4c0-2.2,1.8-4,4-4c2.2,0,4,1.8,4,4C25.3,45.3,23.5,47.1,21.3,47.1z M17.4,18.5c0-2.3,1.8-4.1,4.1-4.1    s4.1,1.8,4.1,4.1c0,2.3-1.8,4.1-4.1,4.1S17.4,20.8,17.4,18.5z"/>
		<path class="st29" d="M48.6,32.8C48.6,32.8,48.6,32.8,48.6,32.8c-1-0.6-1.8-1.5-2.4-2.4c-2,1.4-4.5,4.1-7.8,9.1    c-6.8,10.1-11.8,21.7-9.5,23.2c0.2,0.1,0.4,0.2,0.6,0.2c3,0,11.1-8.5,17.4-17.8c3.4-5.1,5.1-8.6,5.5-10.9    c-0.7-0.1-1.4-0.3-2.1-0.6C49.7,33.4,49.1,33.1,48.6,32.8z"/>
		<path class="st29" d="M63.5,16.4c-0.1-0.6-0.7-1-1.3-1c-4.9,0.2-8.9,1.1-11.7,2.8c-3.2,1.9-4.2,4.3-4.5,6c-0.2,1.3,0,2.5,0.4,3.7    c0.8,1.9,2.4,3.5,4.5,4.3c1.1,0.4,2.1,0.6,3.1,0.6l0,0c0.1,0,0.3,0,0.4,0c1.1-0.1,2.1-0.4,3.1-1c2.8-1.8,2.6-4.8,2.4-7.4    c-0.3-3.3-0.3-5.3,2.8-6.6C63.3,17.6,63.6,17,63.5,16.4z"/>
	</g>
</g>
</svg>